<mxfile host="app.diagrams.net" modified="2024-05-12T17:09:13.527Z" agent="Mozilla/5.0 (Windows NT 10.0; Win64; x64) AppleWebKit/537.36 (KHTML, like Gecko) Chrome/124.0.0.0 Safari/537.36 Edg/124.0.0.0" etag="hK5UIAnRbR6AFZ24wxd3" version="24.3.1" type="google">
  <diagram name="Page-1" id="2YBvvXClWsGukQMizWep">
    <mxGraphModel grid="1" page="1" gridSize="10" guides="1" tooltips="1" connect="1" arrows="1" fold="1" pageScale="1" pageWidth="850" pageHeight="1100" math="0" shadow="0">
      <root>
        <mxCell id="0" />
        <mxCell id="1" parent="0" />
        <mxCell id="aM9ryv3xv72pqoxQDRHE-1" value=":Web interface" style="shape=umlLifeline;perimeter=lifelinePerimeter;whiteSpace=wrap;html=1;container=0;dropTarget=0;collapsible=0;recursiveResize=0;outlineConnect=0;portConstraint=eastwest;newEdgeStyle={&quot;edgeStyle&quot;:&quot;elbowEdgeStyle&quot;,&quot;elbow&quot;:&quot;vertical&quot;,&quot;curved&quot;:0,&quot;rounded&quot;:0};" vertex="1" parent="1">
          <mxGeometry x="90" y="30" width="100" height="610" as="geometry" />
        </mxCell>
        <mxCell id="aM9ryv3xv72pqoxQDRHE-2" value="" style="html=1;points=[];perimeter=orthogonalPerimeter;outlineConnect=0;targetShapes=umlLifeline;portConstraint=eastwest;newEdgeStyle={&quot;edgeStyle&quot;:&quot;elbowEdgeStyle&quot;,&quot;elbow&quot;:&quot;vertical&quot;,&quot;curved&quot;:0,&quot;rounded&quot;:0};" vertex="1" parent="aM9ryv3xv72pqoxQDRHE-1">
          <mxGeometry x="45" y="70" width="10" height="80" as="geometry" />
        </mxCell>
        <mxCell id="42f4fsxyY4DHstV3A_ZF-33" value="" style="html=1;points=[];perimeter=orthogonalPerimeter;outlineConnect=0;targetShapes=umlLifeline;portConstraint=eastwest;newEdgeStyle={&quot;edgeStyle&quot;:&quot;elbowEdgeStyle&quot;,&quot;elbow&quot;:&quot;vertical&quot;,&quot;curved&quot;:0,&quot;rounded&quot;:0};" vertex="1" parent="aM9ryv3xv72pqoxQDRHE-1">
          <mxGeometry x="45" y="210" width="10" height="80" as="geometry" />
        </mxCell>
        <mxCell id="aM9ryv3xv72pqoxQDRHE-7" value="Browse products" style="html=1;verticalAlign=bottom;endArrow=block;edgeStyle=elbowEdgeStyle;elbow=vertical;curved=0;rounded=0;" edge="1" parent="1" target="aM9ryv3xv72pqoxQDRHE-2">
          <mxGeometry relative="1" as="geometry">
            <mxPoint x="-10" y="120" as="sourcePoint" />
            <Array as="points">
              <mxPoint x="45" y="120" />
            </Array>
            <mxPoint x="80" y="120" as="targetPoint" />
          </mxGeometry>
        </mxCell>
        <mxCell id="42f4fsxyY4DHstV3A_ZF-1" value="User" style="shape=umlActor;verticalLabelPosition=bottom;verticalAlign=top;html=1;outlineConnect=0;" vertex="1" parent="1">
          <mxGeometry x="-30" y="20" width="30" height="60" as="geometry" />
        </mxCell>
        <mxCell id="42f4fsxyY4DHstV3A_ZF-2" value=":Cart" style="shape=umlLifeline;perimeter=lifelinePerimeter;whiteSpace=wrap;html=1;container=0;dropTarget=0;collapsible=0;recursiveResize=0;outlineConnect=0;portConstraint=eastwest;newEdgeStyle={&quot;edgeStyle&quot;:&quot;elbowEdgeStyle&quot;,&quot;elbow&quot;:&quot;vertical&quot;,&quot;curved&quot;:0,&quot;rounded&quot;:0};" vertex="1" parent="1">
          <mxGeometry x="250" y="30" width="100" height="610" as="geometry" />
        </mxCell>
        <mxCell id="42f4fsxyY4DHstV3A_ZF-24" value="" style="html=1;points=[];perimeter=orthogonalPerimeter;outlineConnect=0;targetShapes=umlLifeline;portConstraint=eastwest;newEdgeStyle={&quot;edgeStyle&quot;:&quot;elbowEdgeStyle&quot;,&quot;elbow&quot;:&quot;vertical&quot;,&quot;curved&quot;:0,&quot;rounded&quot;:0};" vertex="1" parent="42f4fsxyY4DHstV3A_ZF-2">
          <mxGeometry x="45" y="220" width="10" height="70" as="geometry" />
        </mxCell>
        <mxCell id="42f4fsxyY4DHstV3A_ZF-4" value=":Payment system" style="shape=umlLifeline;perimeter=lifelinePerimeter;whiteSpace=wrap;html=1;container=0;dropTarget=0;collapsible=0;recursiveResize=0;outlineConnect=0;portConstraint=eastwest;newEdgeStyle={&quot;edgeStyle&quot;:&quot;elbowEdgeStyle&quot;,&quot;elbow&quot;:&quot;vertical&quot;,&quot;curved&quot;:0,&quot;rounded&quot;:0};" vertex="1" parent="1">
          <mxGeometry x="420" y="30" width="100" height="610" as="geometry" />
        </mxCell>
        <mxCell id="42f4fsxyY4DHstV3A_ZF-37" value="" style="html=1;points=[];perimeter=orthogonalPerimeter;outlineConnect=0;targetShapes=umlLifeline;portConstraint=eastwest;newEdgeStyle={&quot;edgeStyle&quot;:&quot;elbowEdgeStyle&quot;,&quot;elbow&quot;:&quot;vertical&quot;,&quot;curved&quot;:0,&quot;rounded&quot;:0};" vertex="1" parent="42f4fsxyY4DHstV3A_ZF-4">
          <mxGeometry x="45" y="410" width="10" height="80" as="geometry" />
        </mxCell>
        <mxCell id="42f4fsxyY4DHstV3A_ZF-6" value=":Database" style="shape=umlLifeline;perimeter=lifelinePerimeter;whiteSpace=wrap;html=1;container=0;dropTarget=0;collapsible=0;recursiveResize=0;outlineConnect=0;portConstraint=eastwest;newEdgeStyle={&quot;edgeStyle&quot;:&quot;elbowEdgeStyle&quot;,&quot;elbow&quot;:&quot;vertical&quot;,&quot;curved&quot;:0,&quot;rounded&quot;:0};" vertex="1" parent="1">
          <mxGeometry x="560" y="30" width="100" height="610" as="geometry" />
        </mxCell>
        <mxCell id="42f4fsxyY4DHstV3A_ZF-7" value="" style="html=1;points=[];perimeter=orthogonalPerimeter;outlineConnect=0;targetShapes=umlLifeline;portConstraint=eastwest;newEdgeStyle={&quot;edgeStyle&quot;:&quot;elbowEdgeStyle&quot;,&quot;elbow&quot;:&quot;vertical&quot;,&quot;curved&quot;:0,&quot;rounded&quot;:0};" vertex="1" parent="42f4fsxyY4DHstV3A_ZF-6">
          <mxGeometry x="45" y="80" width="10" height="50" as="geometry" />
        </mxCell>
        <mxCell id="42f4fsxyY4DHstV3A_ZF-26" value="" style="html=1;points=[];perimeter=orthogonalPerimeter;outlineConnect=0;targetShapes=umlLifeline;portConstraint=eastwest;newEdgeStyle={&quot;edgeStyle&quot;:&quot;elbowEdgeStyle&quot;,&quot;elbow&quot;:&quot;vertical&quot;,&quot;curved&quot;:0,&quot;rounded&quot;:0};" vertex="1" parent="42f4fsxyY4DHstV3A_ZF-6">
          <mxGeometry x="45" y="220" width="10" height="50" as="geometry" />
        </mxCell>
        <mxCell id="42f4fsxyY4DHstV3A_ZF-39" value="" style="html=1;points=[];perimeter=orthogonalPerimeter;outlineConnect=0;targetShapes=umlLifeline;portConstraint=eastwest;newEdgeStyle={&quot;edgeStyle&quot;:&quot;elbowEdgeStyle&quot;,&quot;elbow&quot;:&quot;vertical&quot;,&quot;curved&quot;:0,&quot;rounded&quot;:0};" vertex="1" parent="42f4fsxyY4DHstV3A_ZF-6">
          <mxGeometry x="45" y="410" width="10" height="70" as="geometry" />
        </mxCell>
        <mxCell id="42f4fsxyY4DHstV3A_ZF-8" value="" style="endArrow=none;dashed=1;html=1;dashPattern=1 3;strokeWidth=2;rounded=0;" edge="1" parent="1" source="42f4fsxyY4DHstV3A_ZF-9" target="42f4fsxyY4DHstV3A_ZF-1">
          <mxGeometry width="50" height="50" relative="1" as="geometry">
            <mxPoint x="-15" y="370" as="sourcePoint" />
            <mxPoint x="120" y="100" as="targetPoint" />
          </mxGeometry>
        </mxCell>
        <mxCell id="42f4fsxyY4DHstV3A_ZF-10" value="" style="endArrow=none;dashed=1;html=1;dashPattern=1 3;strokeWidth=2;rounded=0;" edge="1" parent="1" target="42f4fsxyY4DHstV3A_ZF-9">
          <mxGeometry width="50" height="50" relative="1" as="geometry">
            <mxPoint x="-15" y="640" as="sourcePoint" />
            <mxPoint x="-15" y="80" as="targetPoint" />
          </mxGeometry>
        </mxCell>
        <mxCell id="42f4fsxyY4DHstV3A_ZF-9" value="" style="html=1;points=[];perimeter=orthogonalPerimeter;outlineConnect=0;targetShapes=umlLifeline;portConstraint=eastwest;newEdgeStyle={&quot;edgeStyle&quot;:&quot;elbowEdgeStyle&quot;,&quot;elbow&quot;:&quot;vertical&quot;,&quot;curved&quot;:0,&quot;rounded&quot;:0};" vertex="1" parent="1">
          <mxGeometry x="-20" y="110" width="10" height="60" as="geometry" />
        </mxCell>
        <mxCell id="42f4fsxyY4DHstV3A_ZF-12" value="get products" style="html=1;verticalAlign=bottom;endArrow=block;edgeStyle=elbowEdgeStyle;elbow=vertical;curved=0;rounded=0;" edge="1" parent="1" source="aM9ryv3xv72pqoxQDRHE-2" target="42f4fsxyY4DHstV3A_ZF-7">
          <mxGeometry relative="1" as="geometry">
            <mxPoint x="150" y="130" as="sourcePoint" />
            <Array as="points">
              <mxPoint x="165" y="130" />
            </Array>
            <mxPoint x="505" y="130" as="targetPoint" />
          </mxGeometry>
        </mxCell>
        <mxCell id="42f4fsxyY4DHstV3A_ZF-13" value="return" style="html=1;verticalAlign=bottom;endArrow=open;dashed=1;endSize=8;edgeStyle=elbowEdgeStyle;elbow=vertical;curved=0;rounded=0;" edge="1" parent="1" source="42f4fsxyY4DHstV3A_ZF-7" target="aM9ryv3xv72pqoxQDRHE-2">
          <mxGeometry relative="1" as="geometry">
            <mxPoint x="150" y="150" as="targetPoint" />
            <Array as="points">
              <mxPoint x="265" y="149.84" />
            </Array>
            <mxPoint x="505" y="149.84" as="sourcePoint" />
            <mxPoint as="offset" />
          </mxGeometry>
        </mxCell>
        <mxCell id="42f4fsxyY4DHstV3A_ZF-14" value="return" style="html=1;verticalAlign=bottom;endArrow=open;dashed=1;endSize=8;edgeStyle=elbowEdgeStyle;elbow=vertical;curved=0;rounded=0;" edge="1" parent="1" source="aM9ryv3xv72pqoxQDRHE-2">
          <mxGeometry relative="1" as="geometry">
            <mxPoint x="-10" y="160.16" as="targetPoint" />
            <Array as="points">
              <mxPoint x="85" y="160" />
            </Array>
            <mxPoint x="85" y="160.00000000000003" as="sourcePoint" />
            <mxPoint as="offset" />
          </mxGeometry>
        </mxCell>
        <mxCell id="42f4fsxyY4DHstV3A_ZF-15" value="opt" style="shape=umlFrame;whiteSpace=wrap;html=1;pointerEvents=0;" vertex="1" parent="1">
          <mxGeometry x="-90" y="190" width="780" height="160" as="geometry" />
        </mxCell>
        <mxCell id="42f4fsxyY4DHstV3A_ZF-20" value="[Add to Cart]" style="text;html=1;align=center;verticalAlign=middle;resizable=0;points=[];autosize=1;strokeColor=none;fillColor=none;" vertex="1" parent="1">
          <mxGeometry x="5" y="190" width="90" height="30" as="geometry" />
        </mxCell>
        <mxCell id="42f4fsxyY4DHstV3A_ZF-22" value="Add producs" style="html=1;verticalAlign=bottom;endArrow=block;edgeStyle=elbowEdgeStyle;elbow=vertical;curved=0;rounded=0;" edge="1" parent="1">
          <mxGeometry relative="1" as="geometry">
            <mxPoint x="-10" y="250" as="sourcePoint" />
            <Array as="points">
              <mxPoint x="45" y="250" />
            </Array>
            <mxPoint x="135" y="250" as="targetPoint" />
          </mxGeometry>
        </mxCell>
        <mxCell id="42f4fsxyY4DHstV3A_ZF-23" value="" style="html=1;points=[];perimeter=orthogonalPerimeter;outlineConnect=0;targetShapes=umlLifeline;portConstraint=eastwest;newEdgeStyle={&quot;edgeStyle&quot;:&quot;elbowEdgeStyle&quot;,&quot;elbow&quot;:&quot;vertical&quot;,&quot;curved&quot;:0,&quot;rounded&quot;:0};" vertex="1" parent="1">
          <mxGeometry x="-20" y="240" width="10" height="90" as="geometry" />
        </mxCell>
        <mxCell id="42f4fsxyY4DHstV3A_ZF-25" value="Update producs" style="html=1;verticalAlign=bottom;endArrow=block;edgeStyle=elbowEdgeStyle;elbow=vertical;curved=0;rounded=0;" edge="1" parent="1" source="42f4fsxyY4DHstV3A_ZF-24">
          <mxGeometry relative="1" as="geometry">
            <mxPoint x="310" y="270" as="sourcePoint" />
            <Array as="points" />
            <mxPoint x="605" y="270.08638297872335" as="targetPoint" />
          </mxGeometry>
        </mxCell>
        <mxCell id="42f4fsxyY4DHstV3A_ZF-29" value="return" style="html=1;verticalAlign=bottom;endArrow=open;dashed=1;endSize=8;edgeStyle=elbowEdgeStyle;elbow=vertical;curved=0;rounded=0;" edge="1" parent="1" source="42f4fsxyY4DHstV3A_ZF-26" target="42f4fsxyY4DHstV3A_ZF-33">
          <mxGeometry relative="1" as="geometry">
            <mxPoint x="370" y="290" as="targetPoint" />
            <Array as="points">
              <mxPoint x="485" y="290" />
            </Array>
            <mxPoint x="500" y="290" as="sourcePoint" />
            <mxPoint as="offset" />
          </mxGeometry>
        </mxCell>
        <mxCell id="42f4fsxyY4DHstV3A_ZF-30" value="opt" style="shape=umlFrame;whiteSpace=wrap;html=1;pointerEvents=0;" vertex="1" parent="1">
          <mxGeometry x="-90" y="370" width="780" height="220" as="geometry" />
        </mxCell>
        <mxCell id="42f4fsxyY4DHstV3A_ZF-31" value="[Make a payment]" style="text;html=1;align=center;verticalAlign=middle;resizable=0;points=[];autosize=1;strokeColor=none;fillColor=none;" vertex="1" parent="1">
          <mxGeometry x="-10" y="370" width="120" height="30" as="geometry" />
        </mxCell>
        <mxCell id="42f4fsxyY4DHstV3A_ZF-32" value="" style="html=1;points=[];perimeter=orthogonalPerimeter;outlineConnect=0;targetShapes=umlLifeline;portConstraint=eastwest;newEdgeStyle={&quot;edgeStyle&quot;:&quot;elbowEdgeStyle&quot;,&quot;elbow&quot;:&quot;vertical&quot;,&quot;curved&quot;:0,&quot;rounded&quot;:0};" vertex="1" parent="1">
          <mxGeometry x="-20" y="430" width="10" height="110" as="geometry" />
        </mxCell>
        <mxCell id="42f4fsxyY4DHstV3A_ZF-34" value="Add producs" style="html=1;verticalAlign=bottom;endArrow=block;edgeStyle=elbowEdgeStyle;elbow=vertical;curved=0;rounded=0;" edge="1" parent="1" source="42f4fsxyY4DHstV3A_ZF-33" target="42f4fsxyY4DHstV3A_ZF-24">
          <mxGeometry relative="1" as="geometry">
            <mxPoint x="150" y="260" as="sourcePoint" />
            <Array as="points">
              <mxPoint x="205" y="260" />
            </Array>
            <mxPoint x="295" y="260" as="targetPoint" />
          </mxGeometry>
        </mxCell>
        <mxCell id="42f4fsxyY4DHstV3A_ZF-35" value="" style="html=1;points=[];perimeter=orthogonalPerimeter;outlineConnect=0;targetShapes=umlLifeline;portConstraint=eastwest;newEdgeStyle={&quot;edgeStyle&quot;:&quot;elbowEdgeStyle&quot;,&quot;elbow&quot;:&quot;vertical&quot;,&quot;curved&quot;:0,&quot;rounded&quot;:0};" vertex="1" parent="1">
          <mxGeometry x="135" y="430" width="10" height="110" as="geometry" />
        </mxCell>
        <mxCell id="42f4fsxyY4DHstV3A_ZF-36" value="Make payment" style="html=1;verticalAlign=bottom;endArrow=block;edgeStyle=elbowEdgeStyle;elbow=vertical;curved=0;rounded=0;" edge="1" parent="1">
          <mxGeometry relative="1" as="geometry">
            <mxPoint x="-10" y="440" as="sourcePoint" />
            <Array as="points">
              <mxPoint x="45" y="440" />
            </Array>
            <mxPoint x="135" y="440" as="targetPoint" />
          </mxGeometry>
        </mxCell>
        <mxCell id="42f4fsxyY4DHstV3A_ZF-38" value="Get payment" style="html=1;verticalAlign=bottom;endArrow=block;edgeStyle=elbowEdgeStyle;elbow=vertical;curved=0;rounded=0;" edge="1" parent="1" source="42f4fsxyY4DHstV3A_ZF-35" target="42f4fsxyY4DHstV3A_ZF-37">
          <mxGeometry relative="1" as="geometry">
            <mxPoint x="150" y="459.8" as="sourcePoint" />
            <Array as="points">
              <mxPoint x="205" y="459.8" />
            </Array>
            <mxPoint x="295" y="459.8" as="targetPoint" />
          </mxGeometry>
        </mxCell>
        <mxCell id="42f4fsxyY4DHstV3A_ZF-40" value="Verify payment" style="html=1;verticalAlign=bottom;endArrow=block;edgeStyle=elbowEdgeStyle;elbow=vertical;curved=0;rounded=0;" edge="1" parent="1" source="42f4fsxyY4DHstV3A_ZF-37" target="42f4fsxyY4DHstV3A_ZF-39">
          <mxGeometry x="0.0007" relative="1" as="geometry">
            <mxPoint x="500" y="470" as="sourcePoint" />
            <Array as="points">
              <mxPoint x="560" y="469.8" />
            </Array>
            <mxPoint x="820" y="470" as="targetPoint" />
            <mxPoint as="offset" />
          </mxGeometry>
        </mxCell>
        <mxCell id="42f4fsxyY4DHstV3A_ZF-41" value="return" style="html=1;verticalAlign=bottom;endArrow=open;dashed=1;endSize=8;edgeStyle=elbowEdgeStyle;elbow=vertical;curved=0;rounded=0;" edge="1" parent="1" source="42f4fsxyY4DHstV3A_ZF-39" target="42f4fsxyY4DHstV3A_ZF-37">
          <mxGeometry relative="1" as="geometry">
            <mxPoint x="480" y="490" as="targetPoint" />
            <Array as="points">
              <mxPoint x="500" y="490" />
            </Array>
            <mxPoint x="600" y="490" as="sourcePoint" />
            <mxPoint as="offset" />
          </mxGeometry>
        </mxCell>
        <mxCell id="42f4fsxyY4DHstV3A_ZF-42" value="return" style="html=1;verticalAlign=bottom;endArrow=open;dashed=1;endSize=8;edgeStyle=elbowEdgeStyle;elbow=vertical;curved=0;rounded=0;" edge="1" parent="1">
          <mxGeometry relative="1" as="geometry">
            <mxPoint x="145" y="500" as="targetPoint" />
            <Array as="points">
              <mxPoint x="315" y="500" />
            </Array>
            <mxPoint x="465" y="500" as="sourcePoint" />
            <mxPoint as="offset" />
          </mxGeometry>
        </mxCell>
        <mxCell id="42f4fsxyY4DHstV3A_ZF-43" value="Payment notice" style="html=1;verticalAlign=bottom;endArrow=open;dashed=1;endSize=8;edgeStyle=elbowEdgeStyle;elbow=vertical;curved=0;rounded=0;" edge="1" parent="1" target="42f4fsxyY4DHstV3A_ZF-32">
          <mxGeometry relative="1" as="geometry">
            <mxPoint x="5" y="520" as="targetPoint" />
            <Array as="points" />
            <mxPoint x="135" y="520" as="sourcePoint" />
            <mxPoint as="offset" />
          </mxGeometry>
        </mxCell>
        <mxCell id="42f4fsxyY4DHstV3A_ZF-44" value="noticetion" style="html=1;verticalAlign=bottom;endArrow=open;dashed=1;endSize=8;edgeStyle=elbowEdgeStyle;elbow=vertical;curved=0;rounded=0;" edge="1" parent="1">
          <mxGeometry relative="1" as="geometry">
            <mxPoint x="-10" y="310" as="targetPoint" />
            <Array as="points" />
            <mxPoint x="135" y="310" as="sourcePoint" />
            <mxPoint as="offset" />
          </mxGeometry>
        </mxCell>
      </root>
    </mxGraphModel>
  </diagram>
</mxfile>
